<svg width="125" height="19" viewBox="0 0 125 19" fill="none" xmlns="http://www.w3.org/2000/svg">
<path d="M8.19193 3.91688H16.3839V0.850586H8.19193C3.67466 0.850586 0 4.70185 0 9.4362C0 14.1706 3.67466 18.0218 8.19193 18.0218H16.3839V8.60217H8.19193V11.6685H13.4582V14.9555H8.19193C5.28964 14.9555 2.92569 12.478 2.92569 9.4362C2.92569 6.39444 5.28964 3.91688 8.19193 3.91688Z" fill="url(#paint0_linear_0_103)"/>
<path d="M23.1435 3.91688H35.1037V0.850586H23.1435C20.7093 0.850586 18.7432 2.93567 18.7432 5.48682V13.3856C18.7432 15.9367 20.7093 18.0218 23.1435 18.0218H35.1037V14.9555H23.1435C22.3243 14.9555 21.6455 14.2441 21.6455 13.3856V10.1476H32.178V7.08129H21.6455V5.48682C21.6455 4.62826 22.3243 3.91688 23.1435 3.91688Z" fill="url(#paint1_linear_0_103)"/>
<path d="M37.4397 0.875116V3.94141H44.157V18.0464H47.0827V3.94141H53.8001V0.875116H37.4397Z" fill="url(#paint2_linear_0_103)"/>
<path d="M69.6176 0.850586V7.08129H59.0852V0.850586H56.1595V18.0218H59.0852V10.1476H69.6176V18.0218H72.5433V0.850586H69.6176Z" fill="url(#paint3_linear_0_103)"/>
<path d="M89.1567 14.9555L82.2989 0.850586L75.441 14.9555L73.9431 18.0218H77.2199L78.7178 14.9555L82.2989 7.59643L85.8799 14.9555L87.3779 18.0218H90.6546L89.1567 14.9555Z" fill="url(#paint4_linear_0_103)"/>
<path d="M106.282 5.58494V5.48682C106.282 2.93567 104.293 0.850586 101.859 0.850586H95.2114C92.7772 0.850586 90.8111 2.93567 90.8111 5.48682V5.58494C90.8111 6.56615 91.092 7.47378 91.5835 8.20969C91.7474 8.47952 91.9346 8.72482 92.1453 8.9456C92.941 9.7551 94.0177 10.2457 95.2114 10.2457H101.11C102.35 10.2457 103.38 11.3005 103.38 12.6006C103.38 13.9007 102.35 14.9555 101.11 14.9555H95.9838C94.7433 14.9555 93.7368 13.9007 93.7368 12.6006H90.8111C90.8111 15.5933 93.1283 18.0218 95.9838 18.0218H101.11C103.965 18.0218 106.282 15.5933 106.282 12.6006C106.282 11.3005 105.837 10.0985 105.112 9.16637C105.042 9.09278 104.995 9.01919 104.925 8.9456C103.988 7.86626 102.631 7.17941 101.11 7.17941H95.2114C94.3922 7.17941 93.7134 6.46803 93.7134 5.60947V5.51135C93.7134 4.65279 94.3922 3.94141 95.2114 3.94141H101.859C102.678 3.94141 103.356 4.65279 103.356 5.51135V5.60947L106.282 5.58494Z" fill="url(#paint5_linear_0_103)"/>
<path d="M122.074 0.850586V7.08129H111.542V0.850586H108.616V18.0218H111.542V10.1476H122.074V18.0218H125V0.850586H122.074Z" fill="url(#paint6_linear_0_103)"/>
<defs>
<linearGradient id="paint0_linear_0_103" x1="62.5" y1="0.850586" x2="62.5" y2="18.0464" gradientUnits="userSpaceOnUse">
<stop offset="0.5" stop-color="#91DCF0"/>
<stop offset="1" stop-color="#5199EE"/>
</linearGradient>
<linearGradient id="paint1_linear_0_103" x1="62.5" y1="0.850586" x2="62.5" y2="18.0464" gradientUnits="userSpaceOnUse">
<stop offset="0.5" stop-color="#91DCF0"/>
<stop offset="1" stop-color="#5199EE"/>
</linearGradient>
<linearGradient id="paint2_linear_0_103" x1="62.5" y1="0.850586" x2="62.5" y2="18.0464" gradientUnits="userSpaceOnUse">
<stop offset="0.5" stop-color="#91DCF0"/>
<stop offset="1" stop-color="#5199EE"/>
</linearGradient>
<linearGradient id="paint3_linear_0_103" x1="62.5" y1="0.850586" x2="62.5" y2="18.0464" gradientUnits="userSpaceOnUse">
<stop offset="0.5" stop-color="#91DCF0"/>
<stop offset="1" stop-color="#5199EE"/>
</linearGradient>
<linearGradient id="paint4_linear_0_103" x1="62.5" y1="0.850586" x2="62.5" y2="18.0464" gradientUnits="userSpaceOnUse">
<stop offset="0.5" stop-color="#91DCF0"/>
<stop offset="1" stop-color="#5199EE"/>
</linearGradient>
<linearGradient id="paint5_linear_0_103" x1="62.5" y1="0.850586" x2="62.5" y2="18.0464" gradientUnits="userSpaceOnUse">
<stop offset="0.5" stop-color="#91DCF0"/>
<stop offset="1" stop-color="#5199EE"/>
</linearGradient>
<linearGradient id="paint6_linear_0_103" x1="62.5" y1="0.850586" x2="62.5" y2="18.0464" gradientUnits="userSpaceOnUse">
<stop offset="0.5" stop-color="#91DCF0"/>
<stop offset="1" stop-color="#5199EE"/>
</linearGradient>
</defs>
</svg>
